<svg xmlns="http://www.w3.org/2000/svg" fill-rule="evenodd" viewBox="0 0 100 100">
    <path d="M81.384 86.748h-5.755c-.477-3.809-2.12-14.695-5.934-21.204-3.835-6.551-9.995-12.525-12.64-14.939 2.627-2.491 8.8-8.679 12.64-15.239 3.851-6.573 5.49-17.614 5.949-21.318h5.741a1.5 1.5 0 0 0 0-3H17.579a1.5 1.5 0 1 0 0 3h5.745c.459 3.705 2.094 14.746 5.944 21.318 3.847 6.57 9.772 12.769 12.259 15.24-2.504 2.395-8.417 8.379-12.258 14.938-3.814 6.509-5.453 17.396-5.93 21.205H17.58a1.5 1.5 0 0 0 0 3h63.805a1.5 1.5 0 1 0-.001-3.001zM31.856 67.06c4.634-7.911 12.765-15.242 12.847-15.315a1.503 1.503 0 0 0 .024-2.212c-.082-.077-8.222-7.743-12.871-15.684-3.411-5.823-5.002-15.964-5.504-19.802h46.264c-.502 3.836-2.094 13.973-5.51 19.802-4.631 7.913-13.195 15.581-13.281 15.657a1.502 1.502 0 0 0 .025 2.263c.085.073 8.634 7.396 13.257 15.29 3.378 5.767 4.974 15.767 5.493 19.688H26.366c.517-3.918 2.108-13.914 5.49-19.687z"/>
    <path d="M50.982 68.531V45.499l13.727-15.393a1.5 1.5 0 0 0-1.119-2.499H35.375a1.5 1.5 0 0 0-1.119 2.499l13.727 15.393v23.032l-13.81 10.767a1.498 1.498 0 0 0 .922 2.682H63.87a1.498 1.498 0 0 0 .922-2.682l-13.81-10.767zm9.259-37.923-10.76 12.066-10.76-12.066h21.52zM39.457 78.981l10.024-7.815 10.024 7.815H39.457z"/>
</svg>
