<svg xmlns="http://www.w3.org/2000/svg" fill-rule="evenodd" viewBox="0 0 100 100">
    <path d="m20.648 20.732 11.114 4.94a19.752 19.752 0 0 0-3.347 10.975c0 10.868 8.842 19.711 19.71 19.711 10.869 0 19.711-8.843 19.711-19.711a19.76 19.76 0 0 0-3.283-10.877l10.446-4.642V39.83l-2.803 6.31a1.498 1.498 0 0 0 1.371 2.11h5.674a1.5 1.5 0 0 0 1.386-2.075L78 39.851V19.75a1.5 1.5 0 0 0-1.5-1.5c-.069 0-.134.011-.201.02a1.484 1.484 0 0 0-.408-.279L48.877 5.986a1.504 1.504 0 0 0-1.219 0l-27.01 12.005a1.5 1.5 0 0 0 0 2.741zm44.189 15.559c0 9.215-7.497 16.711-16.711 16.711s-16.71-7.496-16.71-16.711a16.74 16.74 0 0 1 3.141-9.733l13.102 5.823a1.504 1.504 0 0 0 1.218 0l12.888-5.727a16.741 16.741 0 0 1 3.072 9.637zm11.038 8.959.579-1.302.541 1.302h-1.12zM48.268 8.642l23.32 10.363-23.32 10.363-23.316-10.363L48.268 8.642zm.43 50.91c-18.847 0-34.182 15.325-34.198 34.169-.001.839.661 1.529 1.5 1.529h65.394c.839 0 1.501-.689 1.5-1.529-.016-18.844-15.351-34.169-34.196-34.169zM17.536 92.25c.786-16.509 14.462-29.698 31.162-29.698 16.699 0 30.375 13.189 31.161 29.698H17.536z"/>
</svg>
