<svg xmlns="http://www.w3.org/2000/svg" fill-rule="evenodd" viewBox="0 0 100 100">
    <path d="M84.43 34.59a34.43 34.43 0 0 0-68.78 2.23 34.85 34.85 0 0 0 .24 4.07l-7 14.2a3.74 3.74 0 0 0 3.25 5.39c1.91.06 3.23.1 4.17.1v3.76c0 11.71 2.89 18.49 17.59 18.49l6.37.21V91a1.5 1.5 0 0 0 3 0v-9.4a1.5 1.5 0 0 0-1.45-1.5l-7.87-.26c-11.36 0-14.64-3.47-14.64-15.49v-5.31a1.5 1.5 0 0 0-1.64-1.5h-.2c-.3 0-1.38 0-5.25-.09a.73.73 0 0 1-.62-.36.72.72 0 0 1 0-.71l7.19-14.61a1.5 1.5 0 0 0 .14-.86 31.77 31.77 0 0 1-.27-4.14 31.43 31.43 0 1 1 52.22 23.5 1.5 1.5 0 0 0-.51 1.13v29.42a1.48 1.48 0 0 0 1.5 1.5 1.5 1.5 0 0 0 1.5-1.5V62.06a34.07 34.07 0 0 0 11.06-27.47Z"/>
    <path d="m73.46 32.35-6-5a1.5 1.5 0 0 0-1.92 0l-6 5a1.5 1.5 0 1 0 1.92 2.3L65 31.71v.24A14.2 14.2 0 0 1 50.68 46a14.36 14.36 0 0 1-10.13-4.12 1.5 1.5 0 1 0-2.1 2.12A17.37 17.37 0 0 0 68 31.95v-.26l3.55 3a1.5 1.5 0 1 0 1.92-2.3Zm-31.81-.81a1.5 1.5 0 0 0-2.11-.19l-3.43 2.86a14.84 14.84 0 0 1-.11-1.7A14.43 14.43 0 0 1 50.33 18a14.14 14.14 0 0 1 10.11 4.23 1.5 1.5 0 0 0 2.13-2.11A17.12 17.12 0 0 0 50.33 15 17.44 17.44 0 0 0 33 32.51a17.85 17.85 0 0 0 .11 1.88l-3.65-3a1.5 1.5 0 0 0-1.92 2.3l6 5a1.5 1.5 0 0 0 1.92 0l6-5a1.5 1.5 0 0 0 .19-2.15Z"/>
</svg>
